<svg width="27" height="26" viewBox="0 0 27 26" fill="none" xmlns="http://www.w3.org/2000/svg">
<path d="M13.4808 3.02038C16.833 3.02038 17.2301 3.03319 18.554 3.09359C19.778 3.14941 20.4428 3.35393 20.8852 3.52587C21.4712 3.75361 21.8894 4.02567 22.3287 4.46497C22.7681 4.90432 23.0401 5.32254 23.2679 5.90855C23.4398 6.35094 23.6443 7.0157 23.7001 8.23976C23.7605 9.56359 23.7734 9.96068 23.7734 13.3129C23.7734 16.6651 23.7605 17.0622 23.7001 18.386C23.6443 19.6101 23.4398 20.2748 23.2679 20.7172C23.0401 21.3032 22.7681 21.7215 22.3288 22.1608C21.8894 22.6001 21.4712 22.8722 20.8852 23.0999C20.4428 23.2718 19.778 23.4764 18.554 23.5322C17.2303 23.5926 16.8333 23.6054 13.4808 23.6054C10.1284 23.6054 9.73136 23.5926 8.40767 23.5322C7.18361 23.4764 6.51885 23.2718 6.07646 23.0999C5.49044 22.8722 5.07222 22.6001 4.63292 22.1608C4.19362 21.7215 3.92152 21.3032 3.69377 20.7172C3.52183 20.2748 3.31731 19.6101 3.26149 18.386C3.20109 17.0622 3.18828 16.6651 3.18828 13.3129C3.18828 9.96068 3.20109 9.56359 3.26149 8.23976C3.31731 7.0157 3.52183 6.35094 3.69377 5.90855C3.92152 5.32254 4.19357 4.90432 4.63292 4.46502C5.07222 4.02567 5.49044 3.75361 6.07646 3.52587C6.51885 3.35393 7.18361 3.14941 8.40767 3.09359C9.73151 3.03319 10.1286 3.02038 13.4808 3.02038ZM13.4808 0.758301C10.0712 0.758301 9.64365 0.772753 8.30456 0.833851C6.96827 0.8948 6.05563 1.10705 5.25706 1.41738C4.43148 1.73822 3.73134 2.1675 3.03335 2.86545C2.3354 3.56344 1.90611 4.26358 1.58532 5.08916C1.27494 5.88772 1.06269 6.80036 1.00174 8.13665C0.940646 9.47573 0.926193 9.90327 0.926193 13.3129C0.926193 16.7225 0.940646 17.15 1.00174 18.4891C1.06269 19.8254 1.27494 20.7381 1.58532 21.5366C1.90611 22.3622 2.3354 23.0623 3.03335 23.7603C3.73134 24.4583 4.43148 24.8876 5.25706 25.2083C6.05563 25.5187 6.96827 25.731 8.30456 25.7919C9.64365 25.853 10.0712 25.8675 13.4808 25.8675C16.8905 25.8675 17.318 25.853 18.6571 25.7919C19.9934 25.731 20.906 25.5187 21.7046 25.2083C22.5302 24.8876 23.2303 24.4583 23.9283 23.7603C24.6262 23.0623 25.0555 22.3622 25.3764 21.5366C25.6867 20.7381 25.8989 19.8254 25.9599 18.4891C26.021 17.15 26.0354 16.7225 26.0354 13.3129C26.0354 9.90327 26.021 9.47573 25.9599 8.13665C25.8989 6.80036 25.6867 5.88772 25.3764 5.08916C25.0555 4.26358 24.6262 3.56344 23.9283 2.86545C23.2303 2.1675 22.5302 1.73822 21.7046 1.41738C20.906 1.10705 19.9934 0.8948 18.6571 0.833851C17.318 0.772753 16.8905 0.758301 13.4808 0.758301Z" fill="#FFFEF2"/>
<path d="M13.4867 6.87183C9.92606 6.87183 7.03967 9.7582 7.03967 13.3187C7.03967 16.8793 9.92606 19.7657 13.4867 19.7657C17.0472 19.7657 19.9336 16.8793 19.9336 13.3187C19.9336 9.7582 17.0472 6.87183 13.4867 6.87183ZM13.4867 17.5036C11.1754 17.5036 9.30176 15.63 9.30176 13.3187C9.30176 11.0075 11.1754 9.13391 13.4867 9.13391C15.7979 9.13391 17.6715 11.0075 17.6715 13.3187C17.6715 15.63 15.7979 17.5036 13.4867 17.5036Z" fill="#FFFEF2"/>
<path d="M21.6974 6.61303C21.6974 7.44503 21.0229 8.11956 20.1908 8.11956C19.3588 8.11956 18.6843 7.44503 18.6843 6.61303C18.6843 5.78097 19.3588 5.10645 20.1908 5.10645C21.0229 5.10645 21.6974 5.78097 21.6974 6.61303Z" fill="#FFFEF2"/>
</svg>
