<svg width="50" height="51" viewBox="0 0 50 51" fill="none" xmlns="http://www.w3.org/2000/svg">
<path fill-rule="evenodd" clip-rule="evenodd" d="M19.7532 15.1477C19.7532 16.4504 18.7874 17.5046 17.2772 17.5046C15.8258 17.5046 14.86 16.4504 14.8899 15.1477C14.86 13.7818 15.8257 12.7583 17.3061 12.7583C18.7874 12.7583 19.7242 13.7818 19.7532 15.1477ZM15.0113 34.5396V19.3664H19.6028V34.5386H15.0113V34.5396Z" fill="#FFFEF2"/>
<path fill-rule="evenodd" clip-rule="evenodd" d="M23.2853 24.2091C23.2853 22.3166 23.2246 20.7031 23.1639 19.3688H27.152L27.364 21.4475H27.4546C28.0589 20.4854 29.5692 19.0283 32.0163 19.0283C35.0368 19.0283 37.3027 21.0763 37.3027 25.5425V34.542H32.7111V26.1334C32.7111 24.1775 32.0471 22.8441 30.3855 22.8441C29.1162 22.8441 28.3616 23.7439 28.0599 24.612C27.9385 24.9228 27.8787 25.3564 27.8787 25.7919V34.542H23.2872V24.2091H23.2853Z" fill="#FFFEF2"/>
</svg>
