<svg width="27" height="20" viewBox="0 0 27 20" fill="none" xmlns="http://www.w3.org/2000/svg">
<path fill-rule="evenodd" clip-rule="evenodd" d="M25.5015 2.33947C25.9191 2.75701 26.2199 3.27666 26.3742 3.84666C27.2623 7.42163 27.0571 13.0678 26.3914 16.7807C26.2372 17.3507 25.9363 17.8703 25.5188 18.2879C25.1012 18.7054 24.5816 19.0063 24.0116 19.1606C21.9249 19.7296 13.5264 19.7296 13.5264 19.7296C13.5264 19.7296 5.12789 19.7296 3.0412 19.1606C2.4712 19.0063 1.95155 18.7054 1.534 18.2879C1.11645 17.8703 0.815577 17.3507 0.661336 16.7807C-0.231974 13.2212 0.0129107 7.57166 0.644092 3.86391C0.798331 3.29391 1.09921 2.77425 1.51675 2.35671C1.9343 1.93916 2.45395 1.63829 3.02395 1.48405C5.11064 0.914946 13.5091 0.897705 13.5091 0.897705C13.5091 0.897705 21.9076 0.897705 23.9943 1.4668C24.5643 1.62104 25.084 1.92192 25.5015 2.33947ZM17.8032 10.3137L10.8361 14.3491V6.27825L17.8032 10.3137Z" fill="#FFFEF2"/>
</svg>
